<mxfile host="65bd71144e">
    <diagram id="lThEbb2old0BHaSxY19P" name="Page-1">
        <mxGraphModel dx="1819" dy="609" grid="0" gridSize="11" guides="1" tooltips="1" connect="1" arrows="1" fold="1" page="1" pageScale="1" pageWidth="850" pageHeight="1100" background="none" math="0" shadow="0">
            <root>
                <mxCell id="0"/>
                <mxCell id="1" parent="0"/>
                <mxCell id="26" value="&lt;span style=&quot;font-size: 20px;&quot;&gt;Expecting&lt;br style=&quot;font-size: 20px;&quot;&gt;Wakeword&lt;/span&gt;" style="ellipse;whiteSpace=wrap;html=1;rounded=1;fillColor=#44BBF1;strokeColor=#1399DB;fontColor=#FFFFFF;labelBackgroundColor=none;fontFamily=Arial Nova Light;fontSize=20;fontStyle=1;labelBorderColor=none;" parent="1" vertex="1">
                    <mxGeometry x="90" y="310" width="170" height="150" as="geometry"/>
                </mxCell>
                <mxCell id="27" value="&lt;span style=&quot;font-size: 20px;&quot;&gt;Expecting&lt;br style=&quot;font-size: 20px;&quot;&gt;Command&lt;/span&gt;" style="ellipse;whiteSpace=wrap;html=1;rounded=1;fillColor=#44BBF1;strokeColor=#1399DB;fontColor=#FFFFFF;labelBackgroundColor=none;fontFamily=Arial Nova Light;fontSize=20;fontStyle=1;labelBorderColor=none;" parent="1" vertex="1">
                    <mxGeometry x="340" y="40" width="170" height="150" as="geometry"/>
                </mxCell>
                <mxCell id="28" value="&lt;span style=&quot;font-size: 20px;&quot;&gt;Processing&lt;br style=&quot;font-size: 20px;&quot;&gt;Command&lt;/span&gt;" style="ellipse;whiteSpace=wrap;html=1;rounded=1;fillColor=#44BBF1;strokeColor=#1399DB;fontColor=#FFFFFF;labelBackgroundColor=none;fontFamily=Arial Nova Light;fontSize=20;fontStyle=1;labelBorderColor=none;" parent="1" vertex="1">
                    <mxGeometry x="600" y="310" width="170" height="150" as="geometry"/>
                </mxCell>
                <mxCell id="29" value="" style="endArrow=classic;html=1;rounded=1;strokeColor=#464749;fontColor=#000000;curved=1;align=left;labelBackgroundColor=none;fontFamily=Arial Nova Light;fontSize=12;fontStyle=1;fillColor=#44BBF1;labelBorderColor=none;" parent="1" edge="1">
                    <mxGeometry x="-0.3646" y="39" width="50" height="50" relative="1" as="geometry">
                        <mxPoint x="191" y="308.9999999999999" as="sourcePoint"/>
                        <mxPoint x="337" y="117" as="targetPoint"/>
                        <Array as="points">
                            <mxPoint x="195" y="225"/>
                            <mxPoint x="275" y="147"/>
                        </Array>
                        <mxPoint x="-8" y="13" as="offset"/>
                    </mxGeometry>
                </mxCell>
                <mxCell id="30" value="" style="curved=1;endArrow=classic;html=1;rounded=1;fontColor=#000000;strokeColor=#464749;fillColor=#44BBF1;labelBackgroundColor=none;fontFamily=Arial Nova Light;fontSize=12;fontStyle=1;labelBorderColor=none;" parent="1" source="28" target="26" edge="1">
                    <mxGeometry width="50" height="50" relative="1" as="geometry">
                        <mxPoint x="399" y="290" as="sourcePoint"/>
                        <mxPoint x="385" y="179" as="targetPoint"/>
                        <Array as="points">
                            <mxPoint x="560" y="476"/>
                            <mxPoint x="435" y="473"/>
                            <mxPoint x="324" y="450"/>
                        </Array>
                    </mxGeometry>
                </mxCell>
                <mxCell id="31" value="&lt;div style=&quot;text-align: left; font-size: 12px;&quot;&gt;&lt;br&gt;&lt;/div&gt;" style="edgeLabel;html=1;align=center;verticalAlign=middle;resizable=0;points=[];fontColor=#000000;labelBackgroundColor=none;fontFamily=Arial Nova Light;fontSize=12;fontStyle=1;labelBorderColor=none;" parent="30" vertex="1" connectable="0">
                    <mxGeometry x="0.155" y="1" relative="1" as="geometry">
                        <mxPoint x="32" y="1" as="offset"/>
                    </mxGeometry>
                </mxCell>
                <mxCell id="32" value="" style="curved=1;endArrow=classic;html=1;rounded=1;fontColor=#000000;strokeColor=#464749;fillColor=#44BBF1;exitX=0.412;exitY=0.993;exitDx=0;exitDy=0;entryX=0.969;entryY=0.366;entryDx=0;entryDy=0;entryPerimeter=0;exitPerimeter=0;labelBackgroundColor=none;fontFamily=Arial Nova Light;fontSize=12;fontStyle=1;labelBorderColor=none;" parent="1" target="26" edge="1">
                    <mxGeometry width="50" height="50" relative="1" as="geometry">
                        <mxPoint x="409.03999999999996" y="188.95000000000005" as="sourcePoint"/>
                        <mxPoint x="255.94000000000005" y="365.04999999999995" as="targetPoint"/>
                        <Array as="points">
                            <mxPoint x="397" y="272"/>
                            <mxPoint x="337" y="334"/>
                        </Array>
                    </mxGeometry>
                </mxCell>
                <mxCell id="33" value="&lt;div style=&quot;text-align: left; font-size: 12px;&quot;&gt;&lt;br&gt;&lt;/div&gt;" style="edgeLabel;html=1;align=center;verticalAlign=middle;resizable=0;points=[];fontColor=#000000;labelBackgroundColor=none;fontFamily=Arial Nova Light;fontSize=12;fontStyle=1;labelBorderColor=none;" parent="32" vertex="1" connectable="0">
                    <mxGeometry x="-0.0911" relative="1" as="geometry">
                        <mxPoint x="-14" y="-23" as="offset"/>
                    </mxGeometry>
                </mxCell>
                <mxCell id="34" value="" style="endArrow=classic;html=1;rounded=1;strokeColor=#464749;fontColor=default;curved=1;align=left;entryX=1;entryY=0.5;entryDx=0;entryDy=0;exitX=1;exitY=0;exitDx=0;exitDy=0;labelBackgroundColor=none;fontFamily=Arial Nova Light;fontSize=12;fontStyle=1;fillColor=#44BBF1;labelBorderColor=none;" parent="1" source="27" target="27" edge="1">
                    <mxGeometry x="-0.0303" y="-26" width="50" height="50" relative="1" as="geometry">
                        <mxPoint x="186" y="321" as="sourcePoint"/>
                        <mxPoint x="767" y="130" as="targetPoint"/>
                        <Array as="points">
                            <mxPoint x="554" y="16"/>
                            <mxPoint x="593" y="108"/>
                        </Array>
                        <mxPoint as="offset"/>
                    </mxGeometry>
                </mxCell>
                <mxCell id="35" value="" style="curved=1;endArrow=classic;html=1;rounded=1;fontColor=#000000;strokeColor=#464749;fillColor=#44BBF1;labelBackgroundColor=none;fontFamily=Arial Nova Light;fontSize=12;fontStyle=1;labelBorderColor=none;" parent="1" source="27" edge="1">
                    <mxGeometry width="50" height="50" relative="1" as="geometry">
                        <mxPoint x="421.03999999999996" y="199.95000000000005" as="sourcePoint"/>
                        <mxPoint x="658.0000000000002" y="313.9999999999999" as="targetPoint"/>
                        <Array as="points">
                            <mxPoint x="589" y="183"/>
                            <mxPoint x="648" y="283"/>
                        </Array>
                    </mxGeometry>
                </mxCell>
                <mxCell id="36" value="&lt;div style=&quot;text-align: left; font-size: 12px;&quot;&gt;&lt;br&gt;&lt;/div&gt;" style="edgeLabel;html=1;align=center;verticalAlign=middle;resizable=0;points=[];fontColor=#000000;labelBackgroundColor=none;fontFamily=Arial Nova Light;fontSize=12;fontStyle=1;labelBorderColor=none;" parent="35" vertex="1" connectable="0">
                    <mxGeometry x="0.0682" y="1" relative="1" as="geometry">
                        <mxPoint as="offset"/>
                    </mxGeometry>
                </mxCell>
                <mxCell id="37" value="" style="endArrow=classic;startArrow=oval;html=1;rounded=1;fontColor=#000000;strokeColor=#464749;fillColor=#44BBF1;curved=1;entryX=0;entryY=0.5;entryDx=0;entryDy=0;startFill=1;labelBackgroundColor=none;fontFamily=Arial Nova Light;fontSize=12;fontStyle=1;labelBorderColor=none;" parent="1" target="26" edge="1">
                    <mxGeometry width="50" height="50" relative="1" as="geometry">
                        <mxPoint x="32" y="385" as="sourcePoint"/>
                        <mxPoint x="86" y="359" as="targetPoint"/>
                    </mxGeometry>
                </mxCell>
                <mxCell id="38" value="" style="endArrow=classic;html=1;rounded=1;strokeColor=#464749;fontColor=#000000;curved=1;align=left;entryX=0.629;entryY=0.997;entryDx=0;entryDy=0;entryPerimeter=0;labelBackgroundColor=none;fontFamily=Arial Nova Light;fontSize=12;fontStyle=1;fillColor=#44BBF1;labelBorderColor=none;" parent="1" source="28" target="28" edge="1">
                    <mxGeometry x="0.7584" y="57" width="50" height="50" relative="1" as="geometry">
                        <mxPoint x="496.10407640085646" y="72.96699141100885" as="sourcePoint"/>
                        <mxPoint x="521" y="126" as="targetPoint"/>
                        <Array as="points">
                            <mxPoint x="807" y="480"/>
                            <mxPoint x="739" y="530"/>
                        </Array>
                        <mxPoint as="offset"/>
                    </mxGeometry>
                </mxCell>
                <mxCell id="39" value="" style="endArrow=classic;html=1;rounded=1;strokeColor=#464749;fontColor=#000000;curved=1;align=left;exitX=0.031;exitY=0.317;exitDx=0;exitDy=0;exitPerimeter=0;labelBackgroundColor=none;fontFamily=Arial Nova Light;fontSize=12;fontStyle=1;fillColor=#44BBF1;labelBorderColor=none;" parent="1" source="28" target="27" edge="1">
                    <mxGeometry x="0.0946" y="36" width="50" height="50" relative="1" as="geometry">
                        <mxPoint x="704" y="618" as="sourcePoint"/>
                        <mxPoint x="571.9299999999998" y="523.55" as="targetPoint"/>
                        <Array as="points">
                            <mxPoint x="557" y="342"/>
                            <mxPoint x="487" y="297"/>
                        </Array>
                        <mxPoint as="offset"/>
                    </mxGeometry>
                </mxCell>
                <mxCell id="40" value="&lt;span style=&quot;color: rgb(0, 0, 0); text-align: left;&quot;&gt;Event: Recognized Wakeword&lt;/span&gt;&lt;br style=&quot;border-color: var(--border-color); color: rgb(0, 0, 0); text-align: left;&quot;&gt;&lt;span style=&quot;color: rgb(0, 0, 0); text-align: left;&quot;&gt;Action: Indicate Wakeword Detected&lt;/span&gt;&lt;br style=&quot;border-color: var(--border-color); color: rgb(0, 0, 0); text-align: left;&quot;&gt;&lt;span style=&quot;color: rgb(0, 0, 0); text-align: left;&quot;&gt;Action: Reset Intent Engine Timer&lt;/span&gt;" style="rounded=1;whiteSpace=wrap;html=1;strokeColor=none;fontFamily=Arial Nova Light;fontColor=#FFFFFF;fillColor=#D1D3D4;fontStyle=0" parent="1" vertex="1">
                    <mxGeometry x="544" y="70" width="203" height="45" as="geometry"/>
                </mxCell>
                <mxCell id="42" value="&lt;div style=&quot;border-color: var(--border-color); color: rgb(0, 0, 0);&quot;&gt;&lt;span style=&quot;&quot;&gt;Event: Recognized Wakeword&lt;/span&gt;&lt;br style=&quot;border-color: var(--border-color);&quot;&gt;&lt;span style=&quot;&quot;&gt;Action: Indicate Wakeword Detected&lt;/span&gt;&lt;br style=&quot;border-color: var(--border-color);&quot;&gt;&lt;span style=&quot;&quot;&gt;Action: Start Intent Engine Timer&lt;/span&gt;&lt;br&gt;&lt;/div&gt;" style="rounded=1;whiteSpace=wrap;html=1;strokeColor=none;fontFamily=Arial Nova Light;fontColor=#FFFFFF;fillColor=#D1D3D4;fontStyle=0" parent="1" vertex="1">
                    <mxGeometry x="129" y="161" width="203" height="45" as="geometry"/>
                </mxCell>
                <mxCell id="45" value="&lt;div style=&quot;border-color: var(--border-color); color: rgb(0, 0, 0);&quot;&gt;&lt;div style=&quot;border-color: var(--border-color);&quot;&gt;&lt;span style=&quot;text-align: left;&quot;&gt;Event: Recognized Wakeword&lt;/span&gt;&lt;br style=&quot;border-color: var(--border-color); text-align: left;&quot;&gt;&lt;span style=&quot;text-align: left;&quot;&gt;Action: Reset Intent Engine Timer&lt;/span&gt;&lt;br&gt;&lt;/div&gt;&lt;/div&gt;" style="rounded=1;whiteSpace=wrap;html=1;strokeColor=none;fontFamily=Arial Nova Light;fontColor=#FFFFFF;fillColor=#D1D3D4;align=center;fontStyle=0" parent="1" vertex="1">
                    <mxGeometry x="389" y="312" width="203" height="45" as="geometry"/>
                </mxCell>
                <mxCell id="47" value="&lt;div style=&quot;border-color: var(--border-color); color: rgb(0, 0, 0);&quot;&gt;&lt;div style=&quot;border-color: var(--border-color);&quot;&gt;&lt;font style=&quot;border-color: var(--border-color);&quot;&gt;Event: Intent Engine Timer Expired&lt;/font&gt;&lt;/div&gt;&lt;div style=&quot;border-color: var(--border-color);&quot;&gt;&lt;font style=&quot;border-color: var(--border-color);&quot;&gt;Action: Indicate Waiting for Wakeword&lt;/font&gt;&lt;/div&gt;&lt;/div&gt;" style="rounded=1;whiteSpace=wrap;html=1;strokeColor=none;fontFamily=Arial Nova Light;fontColor=#FFFFFF;fillColor=#D1D3D4;align=center;fontStyle=0" parent="1" vertex="1">
                    <mxGeometry x="244" y="239" width="203" height="45" as="geometry"/>
                </mxCell>
                <mxCell id="48" value="&lt;div style=&quot;border-color: var(--border-color); color: rgb(0, 0, 0);&quot;&gt;&lt;div style=&quot;border-color: var(--border-color);&quot;&gt;&lt;span style=&quot;text-align: left;&quot;&gt;Event: Recognized Command&lt;/span&gt;&lt;br style=&quot;border-color: var(--border-color); text-align: left;&quot;&gt;&lt;span style=&quot;text-align: left;&quot;&gt;Action: Reset Intent Engine Timer&lt;/span&gt;&lt;br&gt;&lt;/div&gt;&lt;/div&gt;" style="rounded=1;whiteSpace=wrap;html=1;strokeColor=none;fontFamily=Arial Nova Light;fontColor=#FFFFFF;fillColor=#D1D3D4;align=center;fontStyle=0" parent="1" vertex="1">
                    <mxGeometry x="574" y="494" width="203" height="45" as="geometry"/>
                </mxCell>
                <mxCell id="49" value="&lt;div style=&quot;border-color: var(--border-color); color: rgb(0, 0, 0);&quot;&gt;&lt;div style=&quot;border-color: var(--border-color);&quot;&gt;&lt;div style=&quot;border-color: var(--border-color);&quot;&gt;&lt;font style=&quot;border-color: var(--border-color);&quot;&gt;Event: Intent Engine Timer Expired&lt;/font&gt;&lt;/div&gt;&lt;div style=&quot;border-color: var(--border-color);&quot;&gt;&lt;font style=&quot;border-color: var(--border-color);&quot;&gt;Action: Indicate Waiting for Wakeword&lt;/font&gt;&lt;/div&gt;&lt;/div&gt;&lt;/div&gt;" style="rounded=1;whiteSpace=wrap;html=1;strokeColor=none;fontFamily=Arial Nova Light;fontColor=#FFFFFF;fillColor=#D1D3D4;align=center;fontStyle=0" parent="1" vertex="1">
                    <mxGeometry x="332" y="446" width="203" height="45" as="geometry"/>
                </mxCell>
                <mxCell id="50" value="&lt;div style=&quot;border-color: var(--border-color); color: rgb(0, 0, 0);&quot;&gt;&lt;font style=&quot;border-color: var(--border-color);&quot;&gt;Event: Recognized Command&lt;/font&gt;&lt;/div&gt;&lt;div style=&quot;border-color: var(--border-color); color: rgb(0, 0, 0);&quot;&gt;&lt;font style=&quot;border-color: var(--border-color);&quot;&gt;Action: Reset Intent Engine Timer&lt;/font&gt;&lt;/div&gt;" style="rounded=1;whiteSpace=wrap;html=1;strokeColor=none;fontFamily=Arial Nova Light;fontColor=#FFFFFF;fillColor=#D1D3D4;align=center;fontStyle=0" parent="1" vertex="1">
                    <mxGeometry x="550" y="194" width="203" height="45" as="geometry"/>
                </mxCell>
            </root>
        </mxGraphModel>
    </diagram>
</mxfile>